<?xml version="1.0" encoding="utf-8"?>
<!-- Generator: Adobe Illustrator 26.5.0, SVG Export Plug-In . SVG Version: 6.00 Build 0)  -->
<svg version="1.1" id="Layer_1" xmlns="http://www.w3.org/2000/svg" xmlns:xlink="http://www.w3.org/1999/xlink" x="0px" y="0px"
	 viewBox="0 0 40 40" style="enable-background:new 0 0 40 40;" xml:space="preserve">
<style type="text/css">
	.st0{fill:#FFFFFF;}
</style>
<path class="st0" d="M20,0C9,0,0,9,0,20c0,11,9,20,20,20s20-9,20-20C40,9,31,0,20,0z M29.3,14.7c1.9,0,3.5,1.6,3.5,3.5
	c0,1.9-1.6,3.5-3.5,3.5s-3.5-1.6-3.5-3.5C25.8,16.2,27.4,14.7,29.3,14.7z M20,11.4c2.4,0,4.4,2,4.4,4.4c0,2.4-2,4.4-4.4,4.4
	c-2.4,0-4.4-2-4.4-4.4C15.6,13.3,17.6,11.4,20,11.4z M10.8,14.7c1.9,0,3.5,1.6,3.5,3.5c0,1.9-1.6,3.5-3.5,3.5s-3.5-1.6-3.5-3.5
	C7.3,16.2,8.9,14.7,10.8,14.7z M11,27.2c0,0.2-0.2,0.4-0.4,0.4H5.8c-0.4,0-0.5-1-0.5-2.1c0-1.1,0.3-1.8,1.2-2.5
	c0.5-0.4,1.3-0.3,1.9-0.1c0.6,0.2,1.2,0.3,1.8,0.4l0.3,0c0.3,0,0.6,0.3,0.6,0.6V27.2z M26.9,25.4v2.2c0,0.5-0.4,1-1,1H14.1
	c-0.5,0-1-0.4-1-1v-2.9c0-0.1,0-0.1,0-0.2c0-0.1,0-0.2,0-0.3c0-1.6,1.2-2.7,2.9-2.7c1.1,0.1,2.5,0.7,4,0.7c1.4,0,2.8-0.6,3.9-0.7
	c1.8-0.1,3.1,1.1,3.1,2.7C26.9,24.7,26.9,25.1,26.9,25.4z M34.2,27.6h-4.8c-0.2,0-0.4-0.2-0.4-0.4V24c0-0.3,0.2-0.6,0.6-0.6l0.3,0
	c0.6-0.1,1.2-0.2,1.8-0.4c0.5-0.2,1.3-0.4,1.9,0.1c0.9,0.7,1.2,1.4,1.2,2.5C34.7,26.6,34.6,27.6,34.2,27.6z"/>
</svg>
