<?xml version="1.0" encoding="utf-8"?>
<!-- Generator: Adobe Illustrator 26.5.0, SVG Export Plug-In . SVG Version: 6.00 Build 0)  -->
<svg version="1.1" id="Layer_1" xmlns="http://www.w3.org/2000/svg" xmlns:xlink="http://www.w3.org/1999/xlink" x="0px" y="0px"
	 viewBox="0 0 40 40" style="enable-background:new 0 0 40 40;" xml:space="preserve">
<style type="text/css">
	.st0{fill:#FFFFFF;}
</style>
<path class="st0" d="M20,0C9,0,0,9,0,20c0,11,9,20,20,20s20-9,20-20C40,9,31,0,20,0z M12.7,29.4c-1.2,0-1.8-3-2-4.5
	c-0.1-0.5,0.2-0.9,0.6-1.1l3.8-1.6c0.4-0.2,1,0,1.2,0.4l0.9,1.3c0.3,0.4,0.9,0.6,1.4,0.3c2.2-1.4,4.1-3.2,5.4-5.4
	c0.3-0.5,0.2-1.1-0.3-1.4l-1.4-1C22,16,21.8,15.5,22,15.1l1.6-3.8c0.2-0.4,0.6-0.7,1.1-0.6c1.5,0.2,4.7,0.8,4.7,2.1
	C29.3,21.9,21.9,29.4,12.7,29.4z"/>
</svg>
